<?xml version="1.0" encoding="UTF-8" standalone="no"?>
<!-- Created with Inkscape (http://www.inkscape.org/) -->

<svg
   width="1000"
   height="500"
   viewBox="0 0 264.58333 132.29167"
   version="1.1"
   id="svg1"
   xml:space="preserve"
   inkscape:version="1.4.2 (f4327f4, 2025-05-13)"
   sodipodi:docname="Flag_of_Henlenland_SR.svg"
   xmlns:inkscape="http://www.inkscape.org/namespaces/inkscape"
   xmlns:sodipodi="http://sodipodi.sourceforge.net/DTD/sodipodi-0.dtd"
   xmlns="http://www.w3.org/2000/svg"
   xmlns:svg="http://www.w3.org/2000/svg"><sodipodi:namedview
     id="namedview1"
     pagecolor="#ffffff"
     bordercolor="#000000"
     borderopacity="0.25"
     inkscape:showpageshadow="2"
     inkscape:pageopacity="0.0"
     inkscape:pagecheckerboard="0"
     inkscape:deskcolor="#d1d1d1"
     inkscape:document-units="px"
     inkscape:zoom="0.50835204"
     inkscape:cx="261.62972"
     inkscape:cy="207.53335"
     inkscape:window-width="1920"
     inkscape:window-height="1009"
     inkscape:window-x="-8"
     inkscape:window-y="-8"
     inkscape:window-maximized="1"
     inkscape:current-layer="layer1" /><defs
     id="defs1" /><g
     inkscape:label="Слой 1"
     inkscape:groupmode="layer"
     id="layer1"><g
       id="g4"
       transform="matrix(0.78125004,0,0,0.78124986,-0.45542053,2.8006675)"><path
         style="fill:#31c0c9"
         d="M 0.58293825,81.081809 V -3.5848551 H 169.91627 339.24959 V 81.081809 165.74847 H 169.91627 0.58293825 Z"
         id="path7" /><path
         style="fill:#e5cb19"
         d="m 0.58293825,154.50503 v -11.24344 l 50.60156075,-0.0675 c 27.830859,-0.0371 104.030861,-0.10135 169.333331,-0.14273 l 118.73176,-0.0752 v 11.38618 11.38617 H 169.91627 0.58293825 Z m 0,-91.109825 V -3.5848551 H 169.91627 339.24959 V 63.058249 129.70135 l -40.28281,0.12987 c -22.15554,0.0714 -93.14656,0.14582 -157.7578,0.1653 -64.611252,0.0195 -122.683985,0.11268 -129.050521,0.20709 l -11.57552075,0.17166 z"
         id="path6" /><path
         style="fill:#cd8a27"
         d="m 0.58293825,154.50503 v -11.24344 l 50.60156075,-0.0675 c 27.830859,-0.0371 104.030861,-0.10135 169.333331,-0.14273 l 118.73176,-0.0752 v 11.38618 11.38617 H 169.91627 0.58293825 Z m 0,-91.109825 V -3.5848551 H 169.91627 339.24959 V 63.058249 129.70135 l -40.28281,0.12987 c -22.15554,0.0714 -93.14656,0.14582 -157.7578,0.1653 -64.611252,0.0195 -122.683985,0.11268 -129.050521,0.20709 L 0.58293825,130.37527 Z M 40.138145,70.260391 c 1.450077,-0.672809 2.611519,-1.967602 3.589107,-4.001188 0.920542,-1.91492 1.785892,-2.943189 3.157768,-3.752277 0.509323,-0.300382 1.183586,-0.846568 1.498362,-1.213746 l 0.572321,-0.667598 1.489736,1.327781 1.489737,1.32778 1.969698,0.960931 1.969698,0.960931 2.250602,0.392473 2.250603,0.392472 1.992877,-0.252672 1.992878,-0.252673 1.667399,-0.667064 c 0.917069,-0.366886 1.764064,-0.667065 1.882211,-0.667065 0.118147,0 1.666162,1.506045 3.440034,3.346766 l 3.225221,3.346767 1.235416,-0.13925 c 1.430173,-0.161201 1.97429,-0.537672 2.461428,-1.703046 L 78.623243,68.162408 78.323208,67.301729 78.023174,66.44105 74.98552,63.494901 71.947866,60.548753 72.670075,59.4047 c 1.073524,-1.700572 1.945527,-4.227948 2.219146,-6.431874 l 0.242836,-1.955983 -0.221939,-2.363871 -0.221938,-2.36387 -0.638343,-1.864398 C 72.319331,39.370435 69.490799,35.426773 65.445052,32.427536 63.645145,31.09321 60.070742,29.222018 59.327901,29.225221 l -0.404339,0.0017 0.681081,0.461277 c 5.012729,3.39498 8.726886,9.24171 9.926648,15.62627 l 0.431738,2.297507 -0.128703,1.719792 -0.128702,1.719792 -0.552084,1.549019 c -0.303646,0.851961 -0.861785,1.955059 -1.240308,2.451329 l -0.688225,0.902309 -0.356312,-0.20237 C 66.545109,55.568105 60.324872,49.714664 55.351687,44.914018 l -1.984375,-1.915529 3.161919,-3.174372 c 1.739056,-1.745904 3.085424,-3.250866 2.99193,-3.34436 -0.09349,-0.09349 -2.094524,-0.411954 -4.446734,-0.70769 l -4.276746,-0.537702 -5.196209,5.19621 -5.19621,5.19621 2.576506,2.576506 2.576506,2.576506 2.322253,-2.311493 c 1.277239,-1.271322 2.464742,-2.311494 2.638896,-2.311494 0.174154,0 1.362423,1.100572 2.640599,2.445716 1.278176,1.345143 4.020597,4.19254 6.094269,6.327548 2.073671,2.135009 3.770312,4.006387 3.770312,4.158618 0,0.344093 -2.333555,1.053315 -4.101041,1.246403 l -1.322917,0.144521 -2.080207,-0.543588 c -2.254157,-0.589043 -3.522511,-1.240046 -4.868403,-2.498784 l -0.863193,-0.807298 -0.76513,0.451974 c -0.420821,0.248585 -1.007844,0.451973 -1.304495,0.451973 -0.296652,0 -0.958218,0.247129 -1.470148,0.549175 l -0.930782,0.549175 -0.797879,1.296718 -0.797878,1.296718 -1.122649,0.813242 c -0.617456,0.447283 -1.61711,1.031966 -2.221453,1.299296 -0.604343,0.26733 -1.576013,0.917182 -2.159267,1.444118 l -1.060463,0.958063 -0.583534,1.356464 -0.583535,1.356463 0.179049,0.954415 c 0.249941,1.3323 0.279247,1.35601 1.667978,1.349509 l 1.241156,-0.0058 z m 21.96854,-48.191593 c -0.527398,-1.600493 -0.890067,-3.021371 -0.805931,-3.157506 0.130979,-0.211928 3.145185,-2.50483 4.85446,-3.69278 0.299867,-0.208409 0.492888,-0.463588 0.428936,-0.567065 -0.06395,-0.103477 -1.630871,-0.206491 -3.482041,-0.22892 -1.85117,-0.02243 -3.429577,-0.103929 -3.507572,-0.181113 -0.078,-0.07718 -0.574344,-1.53006 -1.102998,-3.228614 -0.528655,-1.6985544 -1.05528,-3.0882804 -1.170279,-3.0882804 -0.114999,0 -0.672697,1.4585156 -1.239328,3.2411454 l -1.030238,3.241146 H 51.64543 48.239167 l -0.151018,0.244352 -0.151017,0.244351 0.863006,0.595507 c 1.477576,1.019583 4.699465,3.439069 4.699465,3.529075 0,0.04713 -0.463023,1.49896 -1.028939,3.226302 l -1.02894,3.140621 0.231505,0.08697 c 0.127328,0.04783 1.194365,-0.607012 2.371193,-1.455208 1.176829,-0.848196 2.413533,-1.712905 2.748231,-1.921576 l 0.608544,-0.379401 2.745557,2.007761 2.745557,2.00776 0.08664,-0.377268 c 0.04765,-0.207497 -0.344867,-1.686762 -0.872266,-3.287255 z m -8.607082,0.6054 c 0,-0.109604 0.238125,-1.031959 0.529167,-2.049679 0.291042,-1.017719 0.529167,-1.930578 0.529167,-2.028574 0,-0.098 -0.773907,-0.746417 -1.719792,-1.440934 -0.945885,-0.694518 -1.719792,-1.358859 -1.719792,-1.476313 v -0.213554 h 2.330256 2.330256 l 0.646306,-2.116297 0.646307,-2.116296 0.241321,0.08007 c 0.132726,0.04404 0.534073,0.996372 0.891881,2.116297 l 0.650561,2.036226 h 2.201358 2.201358 l 0.139522,0.225753 c 0.07674,0.124163 -0.422251,0.619569 -1.108864,1.100901 -0.686613,0.481332 -1.504758,1.10405 -1.818099,1.383818 l -0.569713,0.50867 0.664847,1.977412 c 0.664832,1.977369 0.648296,2.549883 -0.05979,2.07013 -0.207184,-0.140374 -1.030782,-0.713366 -1.830219,-1.273315 l -1.453522,-1.01809 -1.599628,1.216527 c -1.53244,1.16543 -2.122886,1.448361 -2.122886,1.017248 z"
         id="path5" /><path
         style="fill:#ca0000"
         d="M 0.58293825,154.67987 V 143.61126 L 57.931374,143.43514 c 31.54164,-0.0969 107.741636,-0.17614 169.333326,-0.17618 l 111.98489,-7e-5 v 11.24479 11.24479 H 169.91627 0.58293825 Z m 0,-104.289402 V -3.5848551 H 169.91627 339.24959 V 50.389407 104.36367 l -169.33332,0.001 -169.33333175,10e-4 z m 40.12657675,19.849264 1.365121,-0.782945 0.619254,-0.85686 c 0.340591,-0.471272 1.035974,-1.691441 1.545297,-2.711485 l 0.926042,-1.854627 1.190625,-0.856954 c 0.654843,-0.471325 1.54857,-1.14629 1.986058,-1.499921 l 0.795434,-0.642966 1.338502,1.226522 1.338503,1.226522 1.967105,0.975258 1.967106,0.975257 2.321288,0.430975 2.321288,0.430975 2.035232,-0.308507 c 1.119377,-0.169679 2.834918,-0.604923 3.812314,-0.96721 l 1.777083,-0.658702 1.692755,1.809935 c 0.931016,0.995465 2.150541,2.323659 2.710055,2.951543 1.232949,1.383608 2.172508,1.901101 3.451636,1.901101 h 0.96564 l 0.932614,-0.932615 0.932615,-0.932614 -0.132022,-1.373971 -0.132021,-1.373971 -3.106999,-2.930743 -3.106999,-2.930742 0.806224,-1.31111 c 0.443424,-0.72111 1.121931,-2.263609 1.507793,-3.427776 l 0.701569,-2.116666 0.01067,-2.910417 0.01067,-2.910416 -0.452183,-1.714627 c -0.657953,-2.494887 -2.022138,-5.725623 -3.186225,-7.54579 -1.863619,-2.913954 -5.190776,-6.042824 -8.462431,-7.958098 -1.310289,-0.767062 -4.559992,-2.22836 -4.955532,-2.22836 -0.543176,0 -0.06912,0.548842 1.315285,1.522769 1.757863,1.236657 4.895348,4.419192 6.06309,6.150148 1.184542,1.755858 2.339705,4.320995 3.157589,7.011689 l 0.723753,2.381019 0.02179,2.778125 0.02179,2.778125 -0.661459,1.665867 c -0.363802,0.916228 -0.917678,1.987307 -1.230835,2.380177 l -0.569377,0.714309 -2.737914,-2.66865 c -1.505854,-1.467758 -4.40479,-4.243633 -6.442082,-6.168611 -2.037291,-1.924978 -3.746154,-3.688532 -3.797473,-3.919009 l -0.09331,-0.419049 3.090388,-2.994477 3.090389,-2.994477 -0.168427,-0.272519 c -0.09263,-0.149886 -0.488821,-0.274713 -0.880415,-0.277394 -0.391594,-0.0027 -1.68514,-0.177026 -2.874547,-0.387432 -1.189407,-0.210406 -2.915813,-0.457487 -3.836458,-0.54907 l -1.673901,-0.166514 -5.22552,5.170479 c -2.874037,2.843764 -5.222149,5.26593 -5.218029,5.382591 0.0084,0.238826 1.548972,1.882981 3.786593,4.041286 l 1.501134,1.447924 2.350437,-2.339547 c 1.292741,-1.286751 2.478123,-2.295505 2.634183,-2.241674 0.301966,0.104158 12.209744,12.331051 12.209744,12.536952 0,0.06684 -0.446485,0.316885 -0.992188,0.555656 l -0.992187,0.434128 -2.513542,0.01915 -2.513541,0.01914 -1.989703,-0.933573 C 52.664517,58.5738 51.311559,57.751922 50.752281,57.260869 l -1.01687,-0.892823 -0.785182,0.450632 c -0.43185,0.247848 -1.016024,0.450633 -1.298164,0.450633 -0.817327,0 -2.558194,1.239065 -3.255542,2.317139 -1.05235,1.626889 -1.940936,2.404217 -3.84369,3.362429 l -1.805662,0.909317 -1.09342,1.137328 -1.09342,1.137328 -0.358863,1.190625 -0.358864,1.190625 0.130488,0.926042 c 0.07177,0.509323 0.24917,1.074869 0.394227,1.256771 l 0.263739,0.330729 1.356666,-0.0025 1.356665,-0.0025 z m 13.727699,-46.189986 2.807776,-1.998731 1.236161,0.798455 c 0.679888,0.43915 1.950535,1.337328 2.82366,1.99595 1.452119,1.095374 2.248959,1.463203 2.248959,1.038143 0,-0.0907 -0.49291,-1.660251 -1.095356,-3.487886 l -1.095356,-3.322971 0.764627,-0.61541 c 0.420544,-0.338476 1.742509,-1.299006 2.937698,-2.134511 1.195189,-0.835504 2.177455,-1.590925 2.182812,-1.678713 0.01588,-0.260212 -3.760175,-0.500462 -5.19499,-0.330529 l -1.325567,0.156994 -0.544103,-0.291195 -0.544104,-0.291195 -1.00054,-3.180251 -1.00054,-3.1802514 h -0.332125 -0.332125 l -0.97907,3.1088544 c -0.538489,1.709869 -1.083524,3.2418 -1.211189,3.404291 l -0.232119,0.295437 -3.460132,0.01485 c -1.903073,0.0082 -3.538597,0.09332 -3.634498,0.189217 -0.0959,0.0959 0.06357,0.337063 0.354385,0.535916 2.005155,1.371088 5.132763,3.741184 5.226734,3.960809 0.06226,0.145521 -0.336025,1.633802 -0.885086,3.307292 -1.081481,3.296262 -1.167291,3.704166 -0.779231,3.704166 0.140548,0 1.519042,-0.899429 3.063319,-1.998731 z m -0.673027,-1.6484 c 0,-0.131327 0.238125,-0.9309 0.529166,-1.776827 0.291042,-0.845927 0.529167,-1.737483 0.529167,-1.981236 V 18.200097 L 53.535737,17.36629 c -0.70773,-0.458593 -1.436684,-1.014426 -1.619896,-1.235184 l -0.333115,-0.401378 1.950626,-0.0041 c 1.072845,-0.0022 2.081602,-0.09153 2.241683,-0.198437 0.160081,-0.106913 0.517268,-0.878996 0.79375,-1.71574 0.276481,-0.836745 0.620401,-1.530359 0.764265,-1.541365 0.143865,-0.01101 0.501053,0.733135 0.79375,1.653646 l 0.532178,1.673656 2.240797,0.132292 2.240796,0.132291 -1.050171,0.821612 c -0.577595,0.451887 -1.318063,0.962092 -1.645484,1.133789 l -0.595313,0.312176 0.002,0.453711 c 0.0011,0.249542 0.235471,1.221463 0.520798,2.159825 0.285326,0.938362 0.484262,1.740626 0.442079,1.782809 -0.04218,0.04218 -0.83444,-0.456879 -1.760571,-1.109026 L 57.370055,20.231192 56.6916,20.661307 c -0.37315,0.236563 -1.035643,0.690685 -1.472205,1.00916 -0.436563,0.318476 -0.942578,0.666934 -1.124479,0.774352 l -0.330729,0.195305 z"
         id="path4" /></g></g></svg>
